<svg width="0" height="0" >
  <symbol   viewBox="0 0 32 32" id="calend">
    <path class="white" d="M29.334 3H25V1C25 0.447 24.553 0 24 0C23.447 0 23 0.447 23 1V3H17V1C17 0.447 16.552 0 16 0C15.448 0 15 0.447 15 1V3H9V1C9 0.447 8.552 0 8 0C7.448 0 7 0.447 7 1V3H2.667C1.194 3 0 4.193 0 5.666V29.333C0 30.806 1.194 32 2.667 32H29.334C30.807 32 32 30.806 32 29.333V5.666C32 4.193 30.807 3 29.334 3ZM30 29.333C30 29.701 29.701 30 29.334 30H2.667C2.299 30 2 29.701 2 29.333V5.666C2 5.299 2.299 5 2.667 5H7V7C7 7.553 7.448 8 8 8C8.552 8 9 7.553 9 7V5H15V7C15 7.553 15.448 8 16 8C16.552 8 17 7.553 17 7V5H23V7C23 7.553 23.447 8 24 8C24.553 8 25 7.553 25 7V5H29.334C29.701 5 30 5.299 30 5.666V29.333ZM7 12H11V15H7V12ZM7 17H11V20H7V17ZM7 22H11V25H7V22ZM14 22H18V25H14V22ZM14 17H18V20H14V17ZM14 12H18V15H14V12ZM21 22H25V25H21V22ZM21 17H25V20H21V17ZM21 12H25V15H21V12Z"></path>
    <rect width="20" height="20" rx="20" fill="#F2C94C"/>
<path d="M9.324 14.644C8.74 14.644 8.16 14.568 7.584 14.416C7.016 14.256 6.528 14.032 6.12 13.744L6.888 12.256C7.208 12.488 7.576 12.672 7.992 12.808C8.416 12.944 8.844 13.012 9.276 13.012C9.764 13.012 10.148 12.916 10.428 12.724C10.708 12.532 10.848 12.264 10.848 11.92C10.848 11.704 10.792 11.512 10.68 11.344C10.568 11.176 10.368 11.048 10.08 10.96C9.8 10.872 9.404 10.828 8.892 10.828H6.744L7.176 6.1H12.3V7.66H7.872L8.88 6.772L8.58 10.144L7.572 9.256H9.348C10.18 9.256 10.848 9.372 11.352 9.604C11.864 9.828 12.236 10.136 12.468 10.528C12.7 10.92 12.816 11.364 12.816 11.86C12.816 12.356 12.692 12.816 12.444 13.24C12.196 13.656 11.812 13.996 11.292 14.26C10.78 14.516 10.124 14.644 9.324 14.644Z" fill="#4F4F4F"/>
  </symbol>
  <symbol  xmlns="http://www.w3.org/2000/svg" viewBox="0 0 32 31" id="comp">
    <path class="white" d="M27 4.496L5 4.5C4.447 4.5 4 4.943 4 5.496V19.496C4 20.049 4.447 20.496 5 20.496H27C27.553 20.496 28 20.049 28 19.496V5.496C28 4.943 27.553 4.496 27 4.496ZM27 19.5H5V5.496H27V19.5ZM29 0.5H3C1.343 0.5 0 1.842 0 3.5V23.5C0 25.154 1.338 26.494 2.99 26.498H13V27.715L6.758 28.526C6.312 28.637 6 29.037 6 29.496C6 30.049 6.447 30.496 7 30.496H25C25.553 30.496 26 30.049 26 29.496C26 29.037 25.688 28.637 25.242 28.525L19 27.715V26.498H29.01C30.662 26.494 32 25.154 32 23.5V3.5C32 1.842 30.656 0.5 29 0.5ZM30 23.5C30 24.051 29.551 24.5 29 24.5H3C2.448 24.5 2 24.051 2 23.5V3.5C2 2.948 2.448 2.5 3 2.5H29C29.551 2.5 30 2.948 30 3.5V23.5Z" ></path>
  </symbol>
  <symbol  xmlns="http://www.w3.org/2000/svg" viewBox="0 0 32 28" id="dialog">
    <path class="white" d="M16 5C16.276 5 16.5 5.224 16.5 5.5C16.5 5.776 16.275 6 16 6C10.673 6 6 8.804 6 12C6 12.276 5.776 12.5 5.5 12.5C5.224 12.5 5 12.276 5 12C5 8.206 10.037 5 16 5ZM16 0C7.163 0 0 5.373 0 12C0 16.127 2.779 19.766 7.008 21.926C7.008 21.953 7 21.971 7 22C7 23.793 5.661 25.723 5.072 26.736C5.073 26.736 5.074 26.736 5.074 26.736C5.027 26.846 5 26.967 5 27.094C5 27.594 5.405 28 5.906 28C6 28 6.165 27.975 6.161 27.986C9.286 27.474 12.23 24.603 12.914 23.771C13.913 23.918 14.943 24 16 24C24.835 24 32 18.627 32 12C32 5.373 24.836 0 16 0ZM16 22C15.083 22 14.142 21.93 13.204 21.793C13.107 21.777 13.01 21.772 12.914 21.772C12.32 21.772 11.751 22.036 11.368 22.502C10.94 23.023 9.722 24.186 8.283 25.041C8.673 24.146 8.978 23.143 8.999 22.109C9.005 22.045 9.008 21.98 9.008 21.925C9.008 21.173 8.587 20.486 7.918 20.144C4.212 18.252 2 15.207 2 12C2 6.486 8.28 2 16 2C23.718 2 30 6.486 30 12C30 17.514 23.719 22 16 22Z" ></path>
    <rect width="20" height="20" rx="10" fill="#EA5455"/>
<path class="trans" d="M5.264 14.5V6.82L6.104 7.66H3.584V6.1H7.208V14.5H5.264ZM12.2672 14.644C11.5792 14.644 10.9632 14.476 10.4192 14.14C9.87522 13.796 9.44722 13.3 9.13522 12.652C8.82322 12.004 8.66722 11.22 8.66722 10.3C8.66722 9.38 8.82322 8.596 9.13522 7.948C9.44722 7.3 9.87522 6.808 10.4192 6.472C10.9632 6.128 11.5792 5.956 12.2672 5.956C12.9632 5.956 13.5792 6.128 14.1152 6.472C14.6592 6.808 15.0872 7.3 15.3992 7.948C15.7112 8.596 15.8672 9.38 15.8672 10.3C15.8672 11.22 15.7112 12.004 15.3992 12.652C15.0872 13.3 14.6592 13.796 14.1152 14.14C13.5792 14.476 12.9632 14.644 12.2672 14.644ZM12.2672 13C12.5952 13 12.8792 12.908 13.1192 12.724C13.3672 12.54 13.5592 12.248 13.6952 11.848C13.8392 11.448 13.9112 10.932 13.9112 10.3C13.9112 9.668 13.8392 9.152 13.6952 8.752C13.5592 8.352 13.3672 8.06 13.1192 7.876C12.8792 7.692 12.5952 7.6 12.2672 7.6C11.9472 7.6 11.6632 7.692 11.4152 7.876C11.1752 8.06 10.9832 8.352 10.8392 8.752C10.7032 9.152 10.6352 9.668 10.6352 10.3C10.6352 10.932 10.7032 11.448 10.8392 11.848C10.9832 12.248 11.1752 12.54 11.4152 12.724C11.6632 12.908 11.9472 13 12.2672 13Z" fill="white"/>
  </symbol>
  <symbol xmlns="http://www.w3.org/2000/svg" viewBox="0 0 32 28" id="file">
    <path class="white" d="M31.924 16.455L27.922 1.449C27.68 0.596 26.889 0 26 0H6C5.11 0 4.32 0.596 4.078 1.449L0.076 16.455C0.025 16.637 0 16.82 0 17V24C0 26.209 1.791 28 4 28H28C30.209 28 32 26.209 32 24V17C32 16.82 31.975 16.637 31.924 16.455ZM30 24C30 25.102 29.102 26 28 26H4C2.897 26 2 25.102 2 24V17L6.001 1.999H25.998L30 17V24ZM23.742 4H8.258C7.805 4 7.408 4.305 7.291 4.743L3.846 16.743C3.767 17.044 3.83 17.364 4.02 17.61C4.21 17.856 4.502 18 4.812 18H9.38L10.827 20.895C11.167 21.572 11.859 22 12.617 22H19.383C20.141 22 20.832 21.572 21.172 20.895L22.619 18H27.187C27.498 18 27.791 17.855 27.98 17.609C28.169 17.363 28.232 17.043 28.154 16.742L24.709 4.742C24.592 4.304 24.195 4 23.742 4ZM24.281 16H22.619C21.857 16 21.172 16.422 20.83 17.105L19.383 20H12.617L11.17 17.105C10.828 16.422 10.143 16 9.381 16H5.334L8.258 5H23.742L26.666 16H24.281Z"></path>
  </symbol>
  <symbol fill="none" xmlns="http://www.w3.org/2000/svg" viewBox="0 0 32 32" id="icon">
    <path class="white" d="M15.962 31.9903C24.5889 31.9903 31.5824 24.8312 31.5824 16C31.5824 7.1688 24.5889 0.00970459 15.962 0.00970459C7.33514 0.00970459 0.341675 7.1688 0.341675 16C0.341675 24.8312 7.33514 31.9903 15.962 31.9903Z" fill="#9E8CFC"></path>
    <path d="M11.0497 30.179C11.6887 30.3997 13.8346 31.1058 13.9259 30.4154C13.9754 30.0365 12.8429 29.6483 11.3096 28.8264C9.12893 27.6602 7.13397 26.1688 5.39166 24.4022C2.84854 21.879 1.38622 18.4464 1.31948 14.8431C1.18952 10.0056 3.05851 6.09492 6.13276 3.57129C2.37333 6.50737 0.122496 11.002 0.00592228 15.8059C-0.0853614 19.3048 0.881627 22.2527 2.69802 24.936C3.26205 25.6732 3.92137 26.3303 4.6583 26.8898C6.39888 28.2221 8.94399 29.4542 11.0497 30.1774" fill="white"></path>
    <path  d="M31.7974 12.3351C30.8289 7.72621 27.8181 4.49966 23.7908 2.22025C26.8774 4.43861 31.2095 9.15554 28.6489 13.3167C26.4828 16.6497 21.2224 15.9969 18.3369 14.4126C14.9146 12.5339 10.632 8.30702 14.8558 4.1756C17.5943 1.50168 26.3049 4.49966 24.7717 8.49645C23.8774 10.8213 20.3962 10.3046 18.8305 9.16806C17.6763 8.32894 16.7047 6.88709 17.2199 5.39827C17.3839 4.92079 17.3607 4.18029 16.6938 4.7251C16.2018 5.13213 15.9465 5.80218 15.8599 6.42839C15.1312 11.64 24.3075 15.6807 27.0306 10.6381C28.4431 8.02053 26.1533 4.21943 23.2709 2.6633C21.1048 1.48915 18.8506 0.664118 16.0873 0.864506C11.6686 1.17761 7.96154 3.97991 7.49584 8.54812C7.03168 13.0881 10.0317 17.1742 13.5639 19.618C17.2771 22.1854 22.2683 23.8778 26.8356 22.3467C30.9294 20.9737 32.6205 16.2192 31.7974 12.3383" fill="white"></path>
  </symbol>
  <symbol  xmlns="http://www.w3.org/2000/svg" viewBox="0 0 25 32" id="location">
    <path class="white" d="M12.002 17.746C15.311 17.746 18.002 15.054 18.002 11.746C18.002 8.438 15.311 5.746 12.002 5.746C8.693 5.746 6.002 8.437 6.002 11.746C6.002 15.055 8.693 17.746 12.002 17.746ZM12.002 6.746C14.76 6.746 17.002 8.988 17.002 11.746C17.002 14.504 14.76 16.746 12.002 16.746C9.244 16.746 7.002 14.504 7.002 11.746C7.002 8.988 9.244 6.746 12.002 6.746ZM12 0C5.382 0 0 5.316 0 12.001C0 19.001 6.001 26.162 10.376 31.195C10.392 31.215 11.094 32 11.962 32C11.964 32 12.035 32 12.039 32C12.906 32 13.609 31.215 13.625 31.195C18.002 26.162 24.002 19.002 24.002 12.001C24.002 5.316 18.619 0 12 0V0ZM12.117 29.883C12.096 29.903 12.035 29.947 11.982 29.981C11.972 29.954 11.898 29.895 11.853 29.848C8.188 25.631 2 18.514 2 12.001C2 6.487 6.487 2 12 2C17.516 2 22.002 6.487 22.002 12.002C22.002 18.514 15.814 25.631 12.117 29.883Z"></path>
  </symbol>
  <symbol  xmlns="http://www.w3.org/2000/svg" viewBox="0 0 32 32" id="mail">
    <path class="white" d="M28 5H4C1.791 5 0 6.792 0 9V22C0 24.209 1.791 26 4 26H28C30.209 26 32 24.209 32 22V9C32 6.792 30.209 5 28 5ZM2 10.25L8.999 15.5L2 20.75V10.25ZM30 22C30 23.104 29.102 24 28 24H4C2.897 24 2 23.104 2 22L9.832 16.125L14.2 19.402C14.733 19.8 15.366 20.002 16 20.002C16.633 20.002 17.266 19.801 17.799 19.402L22.168 16.125L30 22ZM30 20.75L23 15.5L30 10.25V20.75ZM17.199 18.602C16.85 18.864 16.436 19.002 16 19.002C15.564 19.002 15.149 18.863 14.8 18.602L2 9C2 7.897 2.897 7 4 7H28C29.102 7 30 7.897 30 9L17.199 18.602Z"></path>
    <rect width="20" height="20" rx="10" fill="#6FCF97"/>
<path d="M2.896 14.5V13.24L6.136 10.18C6.392 9.948 6.58 9.74 6.7 9.556C6.82 9.372 6.9 9.204 6.94 9.052C6.988 8.9 7.012 8.76 7.012 8.632C7.012 8.296 6.896 8.04 6.664 7.864C6.44 7.68 6.108 7.588 5.668 7.588C5.316 7.588 4.988 7.656 4.684 7.792C4.388 7.928 4.136 8.14 3.928 8.428L2.512 7.516C2.832 7.036 3.28 6.656 3.856 6.376C4.432 6.096 5.096 5.956 5.848 5.956C6.472 5.956 7.016 6.06 7.48 6.268C7.952 6.468 8.316 6.752 8.572 7.12C8.836 7.488 8.968 7.928 8.968 8.44C8.968 8.712 8.932 8.984 8.86 9.256C8.796 9.52 8.66 9.8 8.452 10.096C8.252 10.392 7.956 10.724 7.564 11.092L4.876 13.624L4.504 12.916H9.244V14.5H2.896ZM12.9021 14.644C12.3181 14.644 11.7381 14.568 11.1621 14.416C10.5941 14.256 10.1061 14.032 9.69813 13.744L10.4661 12.256C10.7861 12.488 11.1541 12.672 11.5701 12.808C11.9941 12.944 12.4221 13.012 12.8541 13.012C13.3421 13.012 13.7261 12.916 14.0061 12.724C14.2861 12.532 14.4261 12.264 14.4261 11.92C14.4261 11.704 14.3701 11.512 14.2581 11.344C14.1461 11.176 13.9461 11.048 13.6581 10.96C13.3781 10.872 12.9821 10.828 12.4701 10.828H10.3221L10.7541 6.1H15.8781V7.66H11.4501L12.4581 6.772L12.1581 10.144L11.1501 9.256H12.9261C13.7581 9.256 14.4261 9.372 14.9301 9.604C15.4421 9.828 15.8141 10.136 16.0461 10.528C16.2781 10.92 16.3941 11.364 16.3941 11.86C16.3941 12.356 16.2701 12.816 16.0221 13.24C15.7741 13.656 15.3901 13.996 14.8701 14.26C14.3581 14.516 13.7021 14.644 12.9021 14.644Z" fill="#4F4F4F"/>
  </symbol>
  <symbol  xmlns="http://www.w3.org/2000/svg" viewBox="0 0 32 32" id="news">
    <path class="white" d="M29 0H7C5.343 0 4 1.342 4 3V5H3C1.343 5 0 6.342 0 8V28C0 30.209 1.791 32 4 32H28C30.209 32 32 30.209 32 28V3C32 1.342 30.656 0 29 0ZM30 28C30 29.102 29.102 30 28 30H4C2.897 30 2 29.102 2 28V8C2 7.448 2.448 7 3 7H4V27C4 27.553 4.447 28 5 28C5.553 28 6 27.553 6 27V3C6 2.448 6.448 2 7 2H29C29.551 2 30 2.448 30 3V28ZM19.498 13.005C19.223 13.005 18.998 12.781 18.998 12.505C18.998 12.229 19.223 12.005 19.498 12.005H27.498C27.775 12.005 27.998 12.229 27.998 12.505C27.998 12.781 27.775 13.005 27.498 13.005H19.498ZM19.498 10.005C19.223 10.005 18.998 9.781 18.998 9.505C18.998 9.229 19.223 9.005 19.498 9.005H27.498C27.775 9.005 27.998 9.229 27.998 9.505C27.998 9.781 27.775 10.005 27.498 10.005H19.498ZM19.498 7.005C19.223 7.005 18.998 6.781 18.998 6.505C18.998 6.229 19.223 6.005 19.498 6.005H27.498C27.775 6.005 27.998 6.229 27.998 6.505C27.998 6.781 27.775 7.005 27.498 7.005H19.498ZM16.5 27.004C16.776 27.004 17 27.229 17 27.504C17 27.781 16.775 28.004 16.5 28.004H8.5C8.224 28.004 8 27.781 8 27.504C8 27.229 8.224 27.004 8.5 27.004H16.5ZM16.5 24.004C16.776 24.004 17 24.229 17 24.504C17 24.781 16.775 25.004 16.5 25.004H8.5C8.224 25.004 8 24.781 8 24.504C8 24.229 8.224 24.004 8.5 24.004H16.5ZM16.5 21.004C16.776 21.004 17 21.229 17 21.504C17 21.781 16.775 22.004 16.5 22.004H8.5C8.224 22.004 8 21.781 8 21.504C8 21.229 8.224 21.004 8.5 21.004H16.5ZM27.5 27.004C27.775 27.004 28 27.229 28 27.504C28 27.781 27.775 28.004 27.5 28.004H19.5C19.223 28.004 19 27.781 19 27.504C19 27.229 19.223 27.004 19.5 27.004H27.5ZM27.5 24.004C27.775 24.004 28 24.229 28 24.504C28 24.781 27.775 25.004 27.5 25.004H19.5C19.223 25.004 19 24.781 19 24.504C19 24.229 19.223 24.004 19.5 24.004H27.5ZM27.5 21.004C27.775 21.004 28 21.229 28 21.504C28 21.781 27.775 22.004 27.5 22.004H19.5C19.223 22.004 19 21.781 19 21.504C19 21.229 19.223 21.004 19.5 21.004H27.5ZM27.5 15.004C27.775 15.004 28 15.228 28 15.504C28 15.78 27.775 16.004 27.5 16.004H8.5C8.224 16.004 8 15.78 8 15.504C8 15.228 8.224 15.004 8.5 15.004H27.5ZM27.5 18.004C27.775 18.004 28 18.229 28 18.504C28 18.781 27.775 19.004 27.5 19.004H8.5C8.224 19.004 8 18.781 8 18.504C8 18.229 8.224 18.004 8.5 18.004H27.5ZM9 13H16C16.553 13 17 12.553 17 12V5.004C17 4.451 16.553 4.004 16 4.004H9C8.447 4.004 8 4.451 8 5.004V12C8 12.552 8.447 13 9 13ZM10 6H15V11H10V6Z"></path>
  </symbol>
  <symbol  xmlns="http://www.w3.org/2000/svg" viewBox="0 0 32 28" id="study">
    <path class="white" d="M32 6C32 4.594 31.043 3.392 29.674 3.076L16.661 0.073C16.443 0.024 16.221 0 16 0C15.779 0 15.557 0.024 15.325 0.076L2.326 3.076C0.956 3.392 0 4.594 0 6C0 7.406 0.957 8.608 2.325 8.924L5 9.541V18C5 20.654 8.038 23 16 23C23.962 23 27 20.654 27 18V9.541L29.674 8.924C31.043 8.608 32 7.406 32 6ZM25 18C25 19.105 22 21 16 21C10 21 7 19.105 7 18V10.003L15.338 11.927C15.556 11.976 15.779 12 16 12C16.221 12 16.444 11.976 16.674 11.924L25 10.003V18ZM16.225 9.975C16.15 9.991 16.075 10 16 10C15.925 10 15.849 9.991 15.775 9.975L2.775 6.975C2.321 6.87 2 6.466 2 6C2 5.534 2.321 5.13 2.775 5.025L15.775 2.025C15.849 2.009 15.924 2 16 2C16.076 2 16.151 2.009 16.225 2.025L29.225 5.025C29.678 5.13 30 5.534 30 6C30 6.466 29.678 6.87 29.225 6.975L16.225 9.975ZM29 11C29 10.447 29.447 10 30 10C30.552 10 31 10.447 31 11V20C31 20.553 30.552 21 30 21C29.447 21 29 20.553 29 20V11ZM30 22C31.104 22 32 24.896 32 26C32 27.104 31.104 28 30 28C28.895 28 28 27.104 28 26C28 24.896 28.895 22 30 22Z"></path>
  </symbol>
</svg>
